<?xml version="1.0" encoding="UTF-8"?>
<!DOCTYPE svg PUBLIC "-//W3C//DTD SVG 1.1//EN" "http://www.w3.org/Graphics/SVG/1.1/DTD/svg11.dtd">
<svg xmlns="http://www.w3.org/2000/svg" version="1.1" width="388px" height="155px" style="shape-rendering:geometricPrecision; text-rendering:geometricPrecision; image-rendering:optimizeQuality; fill-rule:evenodd; clip-rule:evenodd" xmlns:xlink="http://www.w3.org/1999/xlink">
<g><path style="opacity:1" fill="#e7a118" d="M 105.5,1.5 C 106.822,1.33003 107.989,1.66337 109,2.5C 110.697,9.60415 115.197,12.6041 122.5,11.5C 122.66,13.1992 122.494,14.8659 122,16.5C 119.562,18.4291 117.728,20.7624 116.5,23.5C 117.302,26.4486 117.636,29.4486 117.5,32.5C 113.646,32.159 110.146,30.8256 107,28.5C 103.854,30.8256 100.354,32.159 96.5,32.5C 96.2994,29.2719 96.6328,26.1052 97.5,23C 95.1667,20 92.8333,17 90.5,14C 90.6448,13.228 90.9781,12.5613 91.5,12C 94.5285,11.461 97.5285,10.7943 100.5,10C 102.556,7.38587 104.223,4.55254 105.5,1.5 Z"/></g>
<g><path style="opacity:1" fill="#f9faf9" d="M -0.5,24.5 C 26.7672,43.7623 53.7672,63.429 80.5,83.5C 73.8401,91.8269 65.5068,97.8269 55.5,101.5C 46.609,96.4675 38.109,90.8009 30,84.5C 29.6667,95.8333 29.3333,107.167 29,118.5C 18.2843,127.053 8.45099,136.386 -0.5,146.5C -0.5,105.833 -0.5,65.1667 -0.5,24.5 Z"/></g>
<g><path style="opacity:1" fill="#f9faf9" d="M 101.5,33.5 C 104.431,49.2694 100.431,63.1027 89.5,75C 88.552,75.4828 87.552,75.6495 86.5,75.5C 86.5,69.1667 86.5,62.8333 86.5,56.5C 84.4727,56.6621 82.4727,56.4955 80.5,56C 90.7834,51.5504 97.7834,44.0504 101.5,33.5 Z"/></g>
<g><path style="opacity:1" fill="#f9faf9" d="M 108.5,33.5 C 109.458,33.9528 110.292,34.6195 111,35.5C 112.737,39.6612 113.737,43.9945 114,48.5C 114.5,81.8317 114.667,115.165 114.5,148.5C 102.348,146.342 92.1812,140.675 84,131.5C 80.3371,124.912 80.0038,118.245 83,111.5C 88,104.167 93,96.8333 98,89.5C 105.053,71.5156 108.553,52.849 108.5,33.5 Z"/></g>
<g><path style="opacity:1" fill="#e7a118" d="M 83.5,154.5 C 60.8333,154.5 38.1667,154.5 15.5,154.5C 20.852,142.642 28.0186,131.975 37,122.5C 49.2305,112.636 61.7305,103.136 74.5,94C 88.9475,83.2324 99.1141,69.3991 105,52.5C 104.773,66.7364 101.107,80.0697 94,92.5C 85.843,102.814 78.1764,113.48 71,124.5C 67.9499,137.739 72.1165,147.739 83.5,154.5 Z"/></g>
<g><path style="opacity:1" fill="#f9faf9" d="M 247.5,77.5 C 249.527,77.3379 251.527,77.5045 253.5,78C 252.093,81.3707 251.593,84.8707 252,88.5C 254.737,87.3895 257.571,87.2228 260.5,88C 263.879,92.4638 264.379,97.2971 262,102.5C 260.5,105.333 258.333,107.5 255.5,109C 251.5,109.667 247.5,109.667 243.5,109C 242.376,108.161 241.709,106.994 241.5,105.5C 243.375,96.1214 245.375,86.7881 247.5,77.5 Z M 253.5,91.5 C 257.254,92.8276 258.421,95.4942 257,99.5C 255.379,103.491 252.546,105.324 248.5,105C 247.86,99.7636 249.526,95.2636 253.5,91.5 Z"/></g>
<g><path style="opacity:1" fill="#f9faf9" d="M 270.5,77.5 C 272.5,77.5 274.5,77.5 276.5,77.5C 275.157,86.0501 273.49,94.5501 271.5,103C 271.645,103.772 271.978,104.439 272.5,105C 273.738,104.923 274.738,105.089 275.5,105.5C 274.754,106.736 274.421,108.07 274.5,109.5C 272.143,109.663 269.81,109.497 267.5,109C 266.056,107.874 265.39,106.374 265.5,104.5C 267.555,95.5604 269.221,86.5604 270.5,77.5 Z"/></g>
<g><path style="opacity:1" fill="#e7a018" d="M 368.5,77.5 C 370.604,77.2011 372.604,77.5344 374.5,78.5C 373.15,82.0772 372.65,85.7438 373,89.5C 382.057,84.8967 385.724,87.5633 384,97.5C 383.356,101.221 382.523,104.887 381.5,108.5C 379.5,109.833 377.5,109.833 375.5,108.5C 376.69,104.053 377.69,99.5534 378.5,95C 378.094,91.2982 376.427,90.6316 373.5,93C 370.374,97.6505 368.54,102.817 368,108.5C 366.301,109.406 364.467,109.739 362.5,109.5C 364.115,98.7596 366.115,88.0929 368.5,77.5 Z"/></g>
<g><path style="opacity:1" fill="#f9faf9" d="M 131.5,79.5 C 134.119,79.2317 136.619,79.565 139,80.5C 142,87.1667 145,93.8333 148,100.5C 149.662,93.5207 151.162,86.5207 152.5,79.5C 154.604,79.2011 156.604,79.5344 158.5,80.5C 155.988,90.0615 153.988,99.7281 152.5,109.5C 150.167,109.5 147.833,109.5 145.5,109.5C 142.627,102.082 139.46,94.7491 136,87.5C 134.667,94.1667 133.333,100.833 132,107.5C 130.23,109.418 128.063,109.918 125.5,109C 128.2,99.3334 130.2,89.5 131.5,79.5 Z"/></g>
<g><path style="opacity:1" fill="#e7a018" d="M 304.5,79.5 C 309.511,79.3341 314.511,79.5007 319.5,80C 322.666,81.6657 324,84.3323 323.5,88C 323.799,91.7349 322.466,94.7349 319.5,97C 315.3,98.3674 310.967,98.8674 306.5,98.5C 306.326,101.874 305.826,105.207 305,108.5C 302.936,109.591 300.769,109.758 298.5,109C 301.2,99.3334 303.2,89.5 304.5,79.5 Z M 310.5,83.5 C 316.573,83.0686 318.74,85.7353 317,91.5C 314.581,93.5848 311.747,94.5848 308.5,94.5C 308.659,90.7091 309.325,87.0424 310.5,83.5 Z"/></g>
<g><path style="opacity:1" fill="#f9faf9" d="M 188.5,81.5 C 190.199,81.3398 191.866,81.5065 193.5,82C 192.594,83.6995 192.261,85.5328 192.5,87.5C 194.199,87.3398 195.866,87.5065 197.5,88C 196.663,89.0113 196.33,90.1779 196.5,91.5C 194.5,91.5 192.5,91.5 190.5,91.5C 190.286,95.4055 189.619,99.2389 188.5,103C 188.63,104.059 189.13,104.892 190,105.5C 191.011,104.663 192.178,104.33 193.5,104.5C 193.579,105.93 193.246,107.264 192.5,108.5C 189.628,109.783 186.795,109.783 184,108.5C 183.219,107.271 182.719,105.938 182.5,104.5C 183.315,100.253 184.315,96.0861 185.5,92C 184.552,91.5172 183.552,91.3505 182.5,91.5C 182.5,90.1667 182.5,88.8333 182.5,87.5C 183.833,87.5 185.167,87.5 186.5,87.5C 186.253,85.1417 186.919,83.1417 188.5,81.5 Z"/></g>
<g><path style="opacity:1" fill="#e7a018" d="M 355.5,81.5 C 356.978,81.238 358.311,81.5713 359.5,82.5C 358.691,84.0709 358.357,85.7376 358.5,87.5C 360.288,87.2148 361.955,87.5481 363.5,88.5C 361.674,90.5706 359.507,92.2373 357,93.5C 356.416,97.0951 355.582,100.595 354.5,104C 355.649,105.744 356.983,105.911 358.5,104.5C 359.747,106.006 359.747,107.506 358.5,109C 355.571,109.777 352.737,109.61 350,108.5C 349.311,102.725 349.811,97.058 351.5,91.5C 350.5,91.5 349.5,91.5 348.5,91.5C 348.5,90.1667 348.5,88.8333 348.5,87.5C 349.833,87.5 351.167,87.5 352.5,87.5C 352.461,84.911 353.461,82.911 355.5,81.5 Z"/></g>
<g><path style="opacity:1" fill="#f9faf9" d="M 165.5,87.5 C 179.466,86.6683 183.299,92.6683 177,105.5C 172.909,109.305 168.076,110.472 162.5,109C 158.204,104.485 157.37,99.3186 160,93.5C 161.36,90.9774 163.193,88.9774 165.5,87.5 Z M 169.5,91.5 C 172.525,92.0332 173.858,93.8665 173.5,97C 173.592,101.319 171.592,104.152 167.5,105.5C 164.079,102.383 163.579,98.7165 166,94.5C 167.145,93.3636 168.312,92.3636 169.5,91.5 Z"/></g>
<g><path style="opacity:1" fill="#f9faf9" d="M 204.5,87.5 C 212.81,85.3368 216.644,88.3368 216,96.5C 215.167,97.3333 214.333,98.1667 213.5,99C 209.816,100.104 206.15,101.27 202.5,102.5C 205.344,106.163 208.678,106.496 212.5,103.5C 213.848,105.611 213.515,107.445 211.5,109C 198.506,111.336 194.006,106.17 198,93.5C 199.494,90.6865 201.66,88.6865 204.5,87.5 Z M 206.5,91.5 C 207.833,91.5 209.167,91.5 210.5,91.5C 210.762,92.9778 210.429,94.3112 209.5,95.5C 201.478,99.0018 200.478,97.6685 206.5,91.5 Z"/></g>
<g><path style="opacity:1" fill="#f9faf9" d="M 225.5,87.5 C 230.167,87.5 234.833,87.5 239.5,87.5C 238.24,94.7981 237.24,102.131 236.5,109.5C 233.921,109.917 231.754,109.25 230,107.5C 220.122,111.636 216.122,108.303 218,97.5C 219.213,93.1305 221.713,89.7972 225.5,87.5 Z M 228.5,91.5 C 230.288,91.2148 231.955,91.5481 233.5,92.5C 232.633,95.9353 231.466,99.2686 230,102.5C 228.034,105.226 226.034,105.56 224,103.5C 223.02,98.4761 224.52,94.4761 228.5,91.5 Z"/></g>
<g><path style="opacity:1" fill="#f9faf9" d="M 284.5,87.5 C 287.85,87.335 291.183,87.5017 294.5,88C 298.5,91.6667 298.5,95.3333 294.5,99C 290.969,100.406 287.302,101.24 283.5,101.5C 283.36,103.124 284.027,104.29 285.5,105C 288.304,105.46 290.971,104.96 293.5,103.5C 294.292,105.195 293.958,106.862 292.5,108.5C 280.87,111.703 276.037,107.369 278,95.5C 279.305,92.0386 281.471,89.372 284.5,87.5 Z M 287.5,91.5 C 291.652,91.6308 292.318,93.1308 289.5,96C 282.153,98.1058 281.486,96.6058 287.5,91.5 Z"/></g>
<g><path style="opacity:1" fill="#e7a018" d="M 332.5,87.5 C 337.099,87.2 341.599,87.5333 346,88.5C 345.011,95.4726 343.845,102.473 342.5,109.5C 340.833,109.5 339.167,109.5 337.5,109.5C 337.557,105.867 336.557,105.7 334.5,109C 325.163,109.968 321.996,105.801 325,96.5C 326.642,92.6997 329.142,89.6997 332.5,87.5 Z M 335.5,91.5 C 336.833,91.5 338.167,91.5 339.5,91.5C 339.782,97.6032 337.449,102.27 332.5,105.5C 331.914,105.291 331.414,104.957 331,104.5C 329.379,98.9227 330.879,94.5894 335.5,91.5 Z"/></g>
</svg>
